<svg width="158" height="34" viewBox="0 0 158 34" fill="none" xmlns="http://www.w3.org/2000/svg">
<path d="M47.8262 19.5664C48.3535 19.5664 48.6172 19.7194 48.6172 20.0254C48.6172 20.123 48.5781 20.3086 48.5 20.582C48.1549 21.7734 47.4193 22.6816 46.293 23.3066C45.1732 23.9251 44.0143 24.2344 42.8164 24.2344C40.8177 24.2344 39.2617 23.5996 38.1484 22.3301C37.0417 21.0605 36.4883 19.4395 36.4883 17.4668C36.4883 15.4681 37.0449 13.8112 38.1582 12.4961C39.2715 11.1745 40.8698 10.5137 42.9531 10.5137C44.1771 10.5137 45.349 10.8424 46.4688 11.5C47.5885 12.1576 48.2786 13.1146 48.5391 14.3711C48.5781 14.5143 48.5977 14.625 48.5977 14.7031C48.5977 15.0221 48.3307 15.1816 47.7969 15.1816C47.3021 15.1816 47.0384 15.0449 47.0059 14.7715C46.7129 12.5254 45.362 11.4023 42.9531 11.4023C41.2995 11.4023 40.0723 12.0339 39.2715 13.2969C38.4707 14.5534 38.0703 15.9206 38.0703 17.3984C38.0703 18.8503 38.4479 20.2044 39.2031 21.4609C39.9648 22.7174 41.1693 23.3457 42.8164 23.3457C43.806 23.3457 44.7142 23.0332 45.541 22.4082C46.3743 21.7832 46.8724 20.9694 47.0352 19.9668C47.0807 19.6999 47.3444 19.5664 47.8262 19.5664ZM50.873 24.2344C50.3457 24.2344 50.082 24.0846 50.082 23.7852V11.1973C50.082 10.8978 50.3457 10.748 50.873 10.748H56.918C57.9466 10.748 58.8874 11.0703 59.7402 11.7148C60.5996 12.3529 61.0293 13.222 61.0293 14.3223C61.0293 15.2728 60.6875 16.0671 60.0039 16.7051C59.3203 17.3366 58.5326 17.7174 57.6406 17.8477C58.0312 18.1732 58.3503 18.5671 58.5977 19.0293C58.8516 19.4915 59.0892 19.9766 59.3105 20.4844C59.5775 21.0768 59.8704 21.653 60.1895 22.2129C60.5085 22.7663 60.9349 23.1797 61.4688 23.4531C61.6445 23.5443 61.7324 23.6549 61.7324 23.7852C61.7324 23.8958 61.6641 23.9935 61.5273 24.0781C61.3711 24.1758 61.1758 24.2246 60.9414 24.2246C60.7266 24.2246 60.5508 24.1888 60.4141 24.1172C59.6914 23.7526 59.1445 23.2578 58.7734 22.6328C58.4023 22.0013 58.0671 21.3535 57.7676 20.6895C57.4551 19.9863 57.1165 19.3451 56.752 18.7656C56.3874 18.1862 55.8633 17.8965 55.1797 17.8965H51.6738V23.7852C51.6738 24.0846 51.4069 24.2344 50.873 24.2344ZM56.918 17.0078C58.5977 17.0078 59.4375 16.1126 59.4375 14.3223C59.4375 12.5319 58.5977 11.6367 56.918 11.6367H51.6738V17.0078H56.918ZM69.291 10.5137C71.3158 10.5137 72.9173 11.1745 74.0957 12.4961C75.2741 13.8177 75.8633 15.4421 75.8633 17.3691C75.8633 19.3027 75.2741 20.9303 74.0957 22.252C72.9173 23.5736 71.3158 24.2344 69.291 24.2344C67.2663 24.2344 65.6647 23.5736 64.4863 22.252C63.3079 20.9303 62.7188 19.3027 62.7188 17.3691C62.7188 15.4421 63.3079 13.8177 64.4863 12.4961C65.6647 11.1745 67.2663 10.5137 69.291 10.5137ZM69.291 11.4023C67.6504 11.4023 66.4102 12.0306 65.5703 13.2871C64.7305 14.5371 64.3105 15.8978 64.3105 17.3691C64.3105 18.8405 64.7305 20.2044 65.5703 21.4609C66.4102 22.7174 67.6504 23.3457 69.291 23.3457C70.9316 23.3457 72.1719 22.7174 73.0117 21.4609C73.8516 20.2044 74.2715 18.8405 74.2715 17.3691C74.2715 15.8978 73.8516 14.5371 73.0117 13.2871C72.1719 12.0306 70.9316 11.4023 69.291 11.4023ZM87.6504 24.2344C87.2142 24.2344 86.918 24.1302 86.7617 23.9219L78.4805 12.623V23.9316C78.4805 24.1335 78.2884 24.2344 77.9043 24.2344C77.5202 24.2344 77.3281 24.1335 77.3281 23.9316V11.0605C77.3281 10.696 77.6536 10.5137 78.3047 10.5137C78.7474 10.5137 79.0469 10.6178 79.2031 10.8262L87.4844 22.125V10.8262C87.4844 10.6178 87.6764 10.5137 88.0605 10.5137C88.4447 10.5137 88.6367 10.6178 88.6367 10.8262V23.707C88.6367 24.0586 88.3079 24.2344 87.6504 24.2344ZM96.6738 10.5137C98.6986 10.5137 100.3 11.1745 101.479 12.4961C102.657 13.8177 103.246 15.4421 103.246 17.3691C103.246 19.3027 102.657 20.9303 101.479 22.252C100.3 23.5736 98.6986 24.2344 96.6738 24.2344C94.6491 24.2344 93.0475 23.5736 91.8691 22.252C90.6908 20.9303 90.1016 19.3027 90.1016 17.3691C90.1016 15.4421 90.6908 13.8177 91.8691 12.4961C93.0475 11.1745 94.6491 10.5137 96.6738 10.5137ZM96.6738 11.4023C95.0332 11.4023 93.793 12.0306 92.9531 13.2871C92.1133 14.5371 91.6934 15.8978 91.6934 17.3691C91.6934 18.8405 92.1133 20.2044 92.9531 21.4609C93.793 22.7174 95.0332 23.3457 96.6738 23.3457C98.3145 23.3457 99.5547 22.7174 100.395 21.4609C101.234 20.2044 101.654 18.8405 101.654 17.3691C101.654 15.8978 101.234 14.5371 100.395 13.2871C99.5547 12.0306 98.3145 11.4023 96.6738 11.4023ZM104.711 10.9531C104.711 10.6602 104.978 10.5137 105.512 10.5137C106.039 10.5137 106.303 10.6602 106.303 10.9531V23.1113H113.031C113.565 23.1113 113.832 23.2611 113.832 23.5605C113.832 23.8535 113.565 24 113.031 24H105.512C104.978 24 104.711 23.8535 104.711 23.5605V10.9531ZM121.146 10.5137C123.171 10.5137 124.773 11.1745 125.951 12.4961C127.13 13.8177 127.719 15.4421 127.719 17.3691C127.719 19.3027 127.13 20.9303 125.951 22.252C124.773 23.5736 123.171 24.2344 121.146 24.2344C119.122 24.2344 117.52 23.5736 116.342 22.252C115.163 20.9303 114.574 19.3027 114.574 17.3691C114.574 15.4421 115.163 13.8177 116.342 12.4961C117.52 11.1745 119.122 10.5137 121.146 10.5137ZM121.146 11.4023C119.506 11.4023 118.266 12.0306 117.426 13.2871C116.586 14.5371 116.166 15.8978 116.166 17.3691C116.166 18.8405 116.586 20.2044 117.426 21.4609C118.266 22.7174 119.506 23.3457 121.146 23.3457C122.787 23.3457 124.027 22.7174 124.867 21.4609C125.707 20.2044 126.127 18.8405 126.127 17.3691C126.127 15.8978 125.707 14.5371 124.867 13.2871C124.027 12.0306 122.787 11.4023 121.146 11.4023ZM135.531 24.2344C130.974 24.2344 128.695 21.9427 128.695 17.3594C128.695 15.2956 129.327 13.6387 130.59 12.3887C131.859 11.1387 133.523 10.5137 135.58 10.5137C136.811 10.5137 138.038 10.8262 139.262 11.4512C140.486 12.0762 141.251 13.0299 141.557 14.3125C141.602 14.4948 141.625 14.638 141.625 14.7422C141.625 15.0352 141.361 15.1816 140.834 15.1816C140.333 15.1816 140.066 15.0449 140.033 14.7715C139.883 13.7038 139.359 12.877 138.461 12.291C137.569 11.6986 136.618 11.4023 135.609 11.4023C133.904 11.4023 132.589 12.0013 131.664 13.1992C130.74 14.3971 130.277 15.7969 130.277 17.3984C130.277 19.0065 130.717 20.403 131.596 21.5879C132.481 22.7663 133.786 23.3522 135.512 23.3457C136.586 23.3457 137.566 23.0299 138.451 22.3984C139.525 21.6367 140.062 20.8327 140.062 19.9863V18.209H135.512C134.978 18.209 134.711 18.0592 134.711 17.7598C134.711 17.4603 134.978 17.3105 135.512 17.3105H140.854C141.381 17.3105 141.645 17.4603 141.645 17.7598V19.9863C141.645 20.5072 141.42 21.0605 140.971 21.6465C140.521 22.2324 140.095 22.6686 139.691 22.9551C138.48 23.8079 137.094 24.2344 135.531 24.2344ZM144.467 23.7949C144.467 24.0879 144.203 24.2344 143.676 24.2344C143.142 24.2344 142.875 24.0879 142.875 23.7949V10.9531C142.875 10.6602 143.142 10.5137 143.676 10.5137C144.203 10.5137 144.467 10.6602 144.467 10.9531V23.7949ZM156.586 20.1914C156.586 21.4479 156.003 22.4375 154.838 23.1602C153.679 23.8763 152.4 24.2344 151 24.2344C149.822 24.2344 148.666 23.9577 147.533 23.4043C146.407 22.8444 145.727 21.9264 145.492 20.6504C145.466 20.5072 145.453 20.4193 145.453 20.3867C145.453 20.1003 145.727 19.957 146.273 19.957C146.716 19.957 146.97 20.084 147.035 20.3379C147.562 22.3626 148.907 23.3652 151.068 23.3457C151.941 23.3327 152.813 23.069 153.686 22.5547C154.558 22.0339 154.994 21.2754 154.994 20.2793C154.994 19.5632 154.561 19.0033 153.695 18.5996C153.057 18.3001 152.253 18.0983 151.283 17.9941C150.697 17.9355 150.079 17.8411 149.428 17.7109C148.783 17.5742 148.191 17.3659 147.65 17.0859C146.413 16.4479 145.795 15.4681 145.795 14.1465C145.795 12.8314 146.407 11.8971 147.631 11.3438C148.855 10.7904 150.01 10.5137 151.098 10.5137C152.185 10.5137 153.22 10.7643 154.203 11.2656C155.193 11.7669 155.844 12.5742 156.156 13.6875C156.195 13.8242 156.215 13.9089 156.215 13.9414C156.215 14.2083 155.938 14.3418 155.385 14.3418C154.942 14.3418 154.688 14.2116 154.623 13.9512C154.232 12.252 153.061 11.4023 151.107 11.4023C150.287 11.4023 149.46 11.6172 148.627 12.0469C147.8 12.4701 147.387 13.1667 147.387 14.1367C147.387 14.8203 147.865 15.3737 148.822 15.7969C149.265 15.9857 149.73 16.1289 150.219 16.2266C150.707 16.3242 151.114 16.3893 151.439 16.4219C152.084 16.487 152.738 16.5911 153.402 16.7344C154.066 16.8776 154.652 17.112 155.16 17.4375C156.111 18.0625 156.586 18.9805 156.586 20.1914Z" fill="white"/>
<path fill-rule="evenodd" clip-rule="evenodd" d="M34 17C34 7.61116 26.3888 0 17 0C7.61116 0 0 7.61116 0 17C0 26.3888 7.61116 34 17 34C26.3868 34 33.9967 26.3922 34 17.0061C33.9967 25.3703 27.2152 32.1497 18.8503 32.1497C10.4834 32.1497 3.70068 25.3669 3.70068 17C3.70068 8.63308 10.4834 1.85035 18.8503 1.85035C27.2173 1.85035 34 8.63308 34 17Z" fill="white"/>
<path fill-rule="evenodd" clip-rule="evenodd" d="M19.3129 30.7618C11.7124 30.7618 5.55102 24.6004 5.55102 16.9999C5.55102 9.39945 11.7124 3.23804 19.3129 3.23804C26.9134 3.23804 33.0748 9.39945 33.0748 16.9999C33.0748 24.6004 26.9134 30.7618 19.3129 30.7618ZM17.815 29.264C11.0418 29.264 5.55102 23.7732 5.55102 17C5.55102 10.2268 11.0418 4.73599 17.815 4.73599C24.5883 4.73599 30.079 10.2268 30.079 17C30.079 23.7732 24.5883 29.264 17.815 29.264Z" fill="white"/>
<path d="M24.497 19.9342C25.1562 19.9342 25.4858 20.1254 25.4858 20.5079C25.4858 20.63 25.4369 20.8619 25.3393 21.2037C24.908 22.693 23.9884 23.8282 22.5805 24.6095C21.1808 25.3826 19.7322 25.7692 18.2348 25.7692C15.7364 25.7692 13.7914 24.9757 12.3998 23.3888C11.0164 21.8019 10.3246 19.7755 10.3246 17.3097C10.3246 14.8113 11.0204 12.7402 12.412 11.0963C13.8036 9.4443 15.8015 8.61829 18.4057 8.61829C19.9356 8.61829 21.4005 9.02926 22.8002 9.8512C24.2 10.6731 25.0626 11.8694 25.3881 13.4401C25.4369 13.6191 25.4614 13.7574 25.4614 13.8551C25.4614 14.2539 25.1277 14.4532 24.4604 14.4532C23.8419 14.4532 23.5123 14.2823 23.4716 13.9406C23.1054 11.1329 21.4168 9.72913 18.4057 9.72913C16.3386 9.72913 14.8046 10.5185 13.8036 12.0973C12.8027 13.6679 12.3022 15.3769 12.3022 17.2242C12.3022 19.039 12.7742 20.7317 13.7182 22.3024C14.6703 23.873 16.1759 24.6583 18.2348 24.6583C19.4718 24.6583 20.607 24.2677 21.6406 23.4865C22.6822 22.7052 23.3048 21.6879 23.5082 20.4347C23.5652 20.101 23.8948 19.9342 24.497 19.9342Z" fill="white"/>
</svg>
