<svg width="211" height="63" viewBox="0 0 211 63" fill="none" xmlns="http://www.w3.org/2000/svg">
<path d="M77.8262 28.5664C78.3535 28.5664 78.6172 28.7194 78.6172 29.0254C78.6172 29.123 78.5781 29.3086 78.5 29.582C78.1549 30.7734 77.4193 31.6816 76.293 32.3066C75.1732 32.9251 74.0143 33.2344 72.8164 33.2344C70.8177 33.2344 69.2617 32.5996 68.1484 31.3301C67.0417 30.0605 66.4883 28.4395 66.4883 26.4668C66.4883 24.4681 67.0449 22.8112 68.1582 21.4961C69.2715 20.1745 70.8698 19.5137 72.9531 19.5137C74.1771 19.5137 75.349 19.8424 76.4688 20.5C77.5885 21.1576 78.2786 22.1146 78.5391 23.3711C78.5781 23.5143 78.5977 23.625 78.5977 23.7031C78.5977 24.0221 78.3307 24.1816 77.7969 24.1816C77.3021 24.1816 77.0384 24.0449 77.0059 23.7715C76.7129 21.5254 75.362 20.4023 72.9531 20.4023C71.2995 20.4023 70.0723 21.0339 69.2715 22.2969C68.4707 23.5534 68.0703 24.9206 68.0703 26.3984C68.0703 27.8503 68.4479 29.2044 69.2031 30.4609C69.9648 31.7174 71.1693 32.3457 72.8164 32.3457C73.806 32.3457 74.7142 32.0332 75.541 31.4082C76.3743 30.7832 76.8724 29.9694 77.0352 28.9668C77.0807 28.6999 77.3444 28.5664 77.8262 28.5664ZM80.873 33.2344C80.3457 33.2344 80.082 33.0846 80.082 32.7852V20.1973C80.082 19.8978 80.3457 19.748 80.873 19.748H86.918C87.9466 19.748 88.8874 20.0703 89.7402 20.7148C90.5996 21.3529 91.0293 22.222 91.0293 23.3223C91.0293 24.2728 90.6875 25.0671 90.0039 25.7051C89.3203 26.3366 88.5326 26.7174 87.6406 26.8477C88.0312 27.1732 88.3503 27.5671 88.5977 28.0293C88.8516 28.4915 89.0892 28.9766 89.3105 29.4844C89.5775 30.0768 89.8704 30.653 90.1895 31.2129C90.5085 31.7663 90.9349 32.1797 91.4688 32.4531C91.6445 32.5443 91.7324 32.6549 91.7324 32.7852C91.7324 32.8958 91.6641 32.9935 91.5273 33.0781C91.3711 33.1758 91.1758 33.2246 90.9414 33.2246C90.7266 33.2246 90.5508 33.1888 90.4141 33.1172C89.6914 32.7526 89.1445 32.2578 88.7734 31.6328C88.4023 31.0013 88.0671 30.3535 87.7676 29.6895C87.4551 28.9863 87.1165 28.3451 86.752 27.7656C86.3874 27.1862 85.8633 26.8965 85.1797 26.8965H81.6738V32.7852C81.6738 33.0846 81.4069 33.2344 80.873 33.2344ZM86.918 26.0078C88.5977 26.0078 89.4375 25.1126 89.4375 23.3223C89.4375 21.5319 88.5977 20.6367 86.918 20.6367H81.6738V26.0078H86.918ZM99.291 19.5137C101.316 19.5137 102.917 20.1745 104.096 21.4961C105.274 22.8177 105.863 24.4421 105.863 26.3691C105.863 28.3027 105.274 29.9303 104.096 31.252C102.917 32.5736 101.316 33.2344 99.291 33.2344C97.2663 33.2344 95.6647 32.5736 94.4863 31.252C93.3079 29.9303 92.7188 28.3027 92.7188 26.3691C92.7188 24.4421 93.3079 22.8177 94.4863 21.4961C95.6647 20.1745 97.2663 19.5137 99.291 19.5137ZM99.291 20.4023C97.6504 20.4023 96.4102 21.0306 95.5703 22.2871C94.7305 23.5371 94.3105 24.8978 94.3105 26.3691C94.3105 27.8405 94.7305 29.2044 95.5703 30.4609C96.4102 31.7174 97.6504 32.3457 99.291 32.3457C100.932 32.3457 102.172 31.7174 103.012 30.4609C103.852 29.2044 104.271 27.8405 104.271 26.3691C104.271 24.8978 103.852 23.5371 103.012 22.2871C102.172 21.0306 100.932 20.4023 99.291 20.4023ZM117.65 33.2344C117.214 33.2344 116.918 33.1302 116.762 32.9219L108.48 21.623V32.9316C108.48 33.1335 108.288 33.2344 107.904 33.2344C107.52 33.2344 107.328 33.1335 107.328 32.9316V20.0605C107.328 19.696 107.654 19.5137 108.305 19.5137C108.747 19.5137 109.047 19.6178 109.203 19.8262L117.484 31.125V19.8262C117.484 19.6178 117.676 19.5137 118.061 19.5137C118.445 19.5137 118.637 19.6178 118.637 19.8262V32.707C118.637 33.0586 118.308 33.2344 117.65 33.2344ZM126.674 19.5137C128.699 19.5137 130.3 20.1745 131.479 21.4961C132.657 22.8177 133.246 24.4421 133.246 26.3691C133.246 28.3027 132.657 29.9303 131.479 31.252C130.3 32.5736 128.699 33.2344 126.674 33.2344C124.649 33.2344 123.048 32.5736 121.869 31.252C120.691 29.9303 120.102 28.3027 120.102 26.3691C120.102 24.4421 120.691 22.8177 121.869 21.4961C123.048 20.1745 124.649 19.5137 126.674 19.5137ZM126.674 20.4023C125.033 20.4023 123.793 21.0306 122.953 22.2871C122.113 23.5371 121.693 24.8978 121.693 26.3691C121.693 27.8405 122.113 29.2044 122.953 30.4609C123.793 31.7174 125.033 32.3457 126.674 32.3457C128.314 32.3457 129.555 31.7174 130.395 30.4609C131.234 29.2044 131.654 27.8405 131.654 26.3691C131.654 24.8978 131.234 23.5371 130.395 22.2871C129.555 21.0306 128.314 20.4023 126.674 20.4023ZM134.711 19.9531C134.711 19.6602 134.978 19.5137 135.512 19.5137C136.039 19.5137 136.303 19.6602 136.303 19.9531V32.1113H143.031C143.565 32.1113 143.832 32.2611 143.832 32.5605C143.832 32.8535 143.565 33 143.031 33H135.512C134.978 33 134.711 32.8535 134.711 32.5605V19.9531ZM151.146 19.5137C153.171 19.5137 154.773 20.1745 155.951 21.4961C157.13 22.8177 157.719 24.4421 157.719 26.3691C157.719 28.3027 157.13 29.9303 155.951 31.252C154.773 32.5736 153.171 33.2344 151.146 33.2344C149.122 33.2344 147.52 32.5736 146.342 31.252C145.163 29.9303 144.574 28.3027 144.574 26.3691C144.574 24.4421 145.163 22.8177 146.342 21.4961C147.52 20.1745 149.122 19.5137 151.146 19.5137ZM151.146 20.4023C149.506 20.4023 148.266 21.0306 147.426 22.2871C146.586 23.5371 146.166 24.8978 146.166 26.3691C146.166 27.8405 146.586 29.2044 147.426 30.4609C148.266 31.7174 149.506 32.3457 151.146 32.3457C152.787 32.3457 154.027 31.7174 154.867 30.4609C155.707 29.2044 156.127 27.8405 156.127 26.3691C156.127 24.8978 155.707 23.5371 154.867 22.2871C154.027 21.0306 152.787 20.4023 151.146 20.4023ZM165.531 33.2344C160.974 33.2344 158.695 30.9427 158.695 26.3594C158.695 24.2956 159.327 22.6387 160.59 21.3887C161.859 20.1387 163.523 19.5137 165.58 19.5137C166.811 19.5137 168.038 19.8262 169.262 20.4512C170.486 21.0762 171.251 22.0299 171.557 23.3125C171.602 23.4948 171.625 23.638 171.625 23.7422C171.625 24.0352 171.361 24.1816 170.834 24.1816C170.333 24.1816 170.066 24.0449 170.033 23.7715C169.883 22.7038 169.359 21.877 168.461 21.291C167.569 20.6986 166.618 20.4023 165.609 20.4023C163.904 20.4023 162.589 21.0013 161.664 22.1992C160.74 23.3971 160.277 24.7969 160.277 26.3984C160.277 28.0065 160.717 29.403 161.596 30.5879C162.481 31.7663 163.786 32.3522 165.512 32.3457C166.586 32.3457 167.566 32.0299 168.451 31.3984C169.525 30.6367 170.062 29.8327 170.062 28.9863V27.209H165.512C164.978 27.209 164.711 27.0592 164.711 26.7598C164.711 26.4603 164.978 26.3105 165.512 26.3105H170.854C171.381 26.3105 171.645 26.4603 171.645 26.7598V28.9863C171.645 29.5072 171.42 30.0605 170.971 30.6465C170.521 31.2324 170.095 31.6686 169.691 31.9551C168.48 32.8079 167.094 33.2344 165.531 33.2344ZM174.467 32.7949C174.467 33.0879 174.203 33.2344 173.676 33.2344C173.142 33.2344 172.875 33.0879 172.875 32.7949V19.9531C172.875 19.6602 173.142 19.5137 173.676 19.5137C174.203 19.5137 174.467 19.6602 174.467 19.9531V32.7949ZM186.586 29.1914C186.586 30.4479 186.003 31.4375 184.838 32.1602C183.679 32.8763 182.4 33.2344 181 33.2344C179.822 33.2344 178.666 32.9577 177.533 32.4043C176.407 31.8444 175.727 30.9264 175.492 29.6504C175.466 29.5072 175.453 29.4193 175.453 29.3867C175.453 29.1003 175.727 28.957 176.273 28.957C176.716 28.957 176.97 29.084 177.035 29.3379C177.562 31.3626 178.907 32.3652 181.068 32.3457C181.941 32.3327 182.813 32.069 183.686 31.5547C184.558 31.0339 184.994 30.2754 184.994 29.2793C184.994 28.5632 184.561 28.0033 183.695 27.5996C183.057 27.3001 182.253 27.0983 181.283 26.9941C180.697 26.9355 180.079 26.8411 179.428 26.7109C178.783 26.5742 178.191 26.3659 177.65 26.0859C176.413 25.4479 175.795 24.4681 175.795 23.1465C175.795 21.8314 176.407 20.8971 177.631 20.3438C178.855 19.7904 180.01 19.5137 181.098 19.5137C182.185 19.5137 183.22 19.7643 184.203 20.2656C185.193 20.7669 185.844 21.5742 186.156 22.6875C186.195 22.8242 186.215 22.9089 186.215 22.9414C186.215 23.2083 185.938 23.3418 185.385 23.3418C184.942 23.3418 184.688 23.2116 184.623 22.9512C184.232 21.252 183.061 20.4023 181.107 20.4023C180.287 20.4023 179.46 20.6172 178.627 21.0469C177.8 21.4701 177.387 22.1667 177.387 23.1367C177.387 23.8203 177.865 24.3737 178.822 24.7969C179.265 24.9857 179.73 25.1289 180.219 25.2266C180.707 25.3242 181.114 25.3893 181.439 25.4219C182.084 25.487 182.738 25.5911 183.402 25.7344C184.066 25.8776 184.652 26.112 185.16 26.4375C186.111 27.0625 186.586 27.9805 186.586 29.1914Z" fill="#111927"/>
<path d="M70.6484 42.4766C70.6484 42.9792 70.4154 43.375 69.9492 43.6641C69.4857 43.9505 68.974 44.0938 68.4141 44.0938C67.9427 44.0938 67.4805 43.9831 67.0273 43.7617C66.5768 43.5378 66.3047 43.1706 66.2109 42.6602C66.2005 42.6029 66.1953 42.5677 66.1953 42.5547C66.1953 42.4401 66.3047 42.3828 66.5234 42.3828C66.7005 42.3828 66.8021 42.4336 66.8281 42.5352C67.0391 43.3451 67.5768 43.7461 68.4414 43.7383C68.7904 43.7331 69.1393 43.6276 69.4883 43.4219C69.8372 43.2135 70.0117 42.9102 70.0117 42.5117C70.0117 42.2253 69.8385 42.0013 69.4922 41.8398C69.237 41.7201 68.9154 41.6393 68.5273 41.5977C68.293 41.5742 68.0456 41.5365 67.7852 41.4844C67.5273 41.4297 67.2904 41.3464 67.0742 41.2344C66.5794 40.9792 66.332 40.5872 66.332 40.0586C66.332 39.5326 66.5768 39.1589 67.0664 38.9375C67.556 38.7161 68.0182 38.6055 68.4531 38.6055C68.888 38.6055 69.3021 38.7057 69.6953 38.9062C70.0911 39.1068 70.3516 39.4297 70.4766 39.875C70.4922 39.9297 70.5 39.9635 70.5 39.9766C70.5 40.0833 70.3893 40.1367 70.168 40.1367C69.9909 40.1367 69.8893 40.0846 69.8633 39.9805C69.707 39.3008 69.2383 38.9609 68.457 38.9609C68.1289 38.9609 67.7982 39.0469 67.4648 39.2188C67.1341 39.388 66.9688 39.6667 66.9688 40.0547C66.9688 40.3281 67.1602 40.5495 67.543 40.7188C67.7201 40.7943 67.9062 40.8516 68.1016 40.8906C68.2969 40.9297 68.4596 40.9557 68.5898 40.9688C68.8477 40.9948 69.1094 41.0365 69.375 41.0938C69.6406 41.151 69.875 41.2448 70.0781 41.375C70.4583 41.625 70.6484 41.9922 70.6484 42.4766ZM73.0703 44.0938C72.4844 44.0938 71.9987 43.9154 71.6133 43.5586C71.2305 43.1992 71.0391 42.7214 71.0391 42.125C71.0391 41.5208 71.2331 41.0312 71.6211 40.6562C72.0117 40.2812 72.5052 40.0938 73.1016 40.0938C73.6615 40.0938 74.138 40.2461 74.5312 40.5508C74.9271 40.8555 75.125 41.3034 75.125 41.8945C75.125 42.0352 75.0195 42.1055 74.8086 42.1055H71.6719C71.6719 42.5221 71.7917 42.8984 72.0312 43.2344C72.2734 43.5703 72.6211 43.7383 73.0742 43.7383C73.4049 43.7383 73.7005 43.6497 73.9609 43.4727C74.2422 43.2852 74.3945 43.0703 74.418 42.8281C74.431 42.7161 74.5352 42.6602 74.7305 42.6602C74.944 42.6602 75.0508 42.7188 75.0508 42.8359C75.0508 42.9193 75.0221 43.0208 74.9648 43.1406C74.8607 43.3594 74.6888 43.5469 74.4492 43.7031C74.0586 43.9635 73.599 44.0938 73.0703 44.0938ZM74.4844 41.7461C74.4193 40.8815 73.9583 40.4492 73.1016 40.4492C72.3359 40.4492 71.8711 40.8815 71.707 41.7461H74.4844ZM79.3516 43.8828C79.3516 44.474 79.151 44.9036 78.75 45.1719C78.3516 45.4427 77.8841 45.5781 77.3477 45.5781C77.043 45.5781 76.7096 45.526 76.3477 45.4219C75.9883 45.3177 75.7201 45.1354 75.543 44.875C75.5273 44.8516 75.5195 44.8294 75.5195 44.8086C75.5195 44.694 75.6276 44.6367 75.8438 44.6367C75.9844 44.6367 76.082 44.6745 76.1367 44.75C76.2565 44.9245 76.4375 45.0469 76.6797 45.1172C76.9219 45.1875 77.1458 45.2227 77.3516 45.2227C78.263 45.2227 78.7188 44.776 78.7188 43.8828V43.5117C78.4323 43.8971 78.0052 44.0898 77.4375 44.0898C76.8411 44.0898 76.3711 43.8984 76.0273 43.5156C75.6862 43.1302 75.5156 42.6549 75.5156 42.0898C75.5156 41.5221 75.6862 41.0469 76.0273 40.6641C76.3711 40.2812 76.8411 40.0898 77.4375 40.0898C77.9948 40.0898 78.4219 40.2878 78.7188 40.6836L78.7227 40.2695C78.7227 40.1497 78.8281 40.0898 79.0391 40.0898C79.2474 40.0898 79.3516 40.1497 79.3516 40.2695V43.8828ZM77.4375 43.7344C77.8724 43.7344 78.1953 43.5547 78.4062 43.1953C78.6172 42.8359 78.7227 42.4674 78.7227 42.0898C78.7227 41.7096 78.6172 41.3411 78.4062 40.9844C78.1953 40.625 77.8724 40.4453 77.4375 40.4453C77.0052 40.4453 76.6823 40.625 76.4688 40.9844C76.2578 41.3411 76.1523 41.7096 76.1523 42.0898C76.1523 42.4674 76.2578 42.8359 76.4688 43.1953C76.6823 43.5547 77.0052 43.7344 77.4375 43.7344ZM80.4531 40.0898C80.6641 40.0898 80.7695 40.1497 80.7695 40.2695V42.3398C80.7695 42.681 80.8607 42.9987 81.043 43.293C81.2279 43.5846 81.5117 43.7305 81.8945 43.7305C82.6914 43.7305 83.0898 43.2292 83.0898 42.2266V40.2695C83.0898 40.1497 83.1953 40.0898 83.4062 40.0898C83.6198 40.0898 83.7266 40.1497 83.7266 40.2695V43.9141C83.7266 44.0339 83.6198 44.0938 83.4062 44.0938C83.1953 44.0938 83.0898 44.0339 83.0898 43.9141V43.4727C82.8581 43.8893 82.4414 44.0977 81.8398 44.0977C81.4232 44.1003 81.0339 43.9544 80.6719 43.6602C80.3125 43.3633 80.1328 42.9232 80.1328 42.3398V40.2695C80.1328 40.1497 80.2396 40.0898 80.4531 40.0898ZM84.7617 38.9492C84.9961 38.9492 85.1133 39.0664 85.1133 39.3008C85.1133 39.5352 84.9961 39.6523 84.7617 39.6523C84.5273 39.6523 84.4102 39.5352 84.4102 39.3008C84.4102 39.0664 84.5273 38.9492 84.7617 38.9492ZM84.4414 40.2695C84.4414 40.1523 84.5482 40.0938 84.7617 40.0938C84.9753 40.0938 85.082 40.1523 85.082 40.2695V43.9141C85.082 44.0339 84.9753 44.0938 84.7617 44.0938C84.5482 44.0938 84.4414 44.0339 84.4414 43.9141V40.2695ZM91.4336 44.0938C91.2227 44.0938 91.1172 44.0352 91.1172 43.918V41.8359C91.1172 41.5052 91.043 41.194 90.8945 40.9023C90.7461 40.6081 90.4818 40.4609 90.1016 40.4609C89.724 40.4609 89.4622 40.6094 89.3164 40.9062C89.1706 41.2005 89.0977 41.5104 89.0977 41.8359V43.918C89.0977 44.0352 88.9909 44.0938 88.7773 44.0938C88.5664 44.0938 88.4609 44.0352 88.4609 43.918V41.8359C88.4609 41.5052 88.3893 41.194 88.2461 40.9023C88.1029 40.6081 87.8398 40.4609 87.457 40.4609C87.0794 40.4609 86.8138 40.6263 86.6602 40.957C86.5091 41.2852 86.4336 41.6198 86.4336 41.9609V43.9141C86.4336 44.0339 86.3281 44.0938 86.1172 44.0938C85.9036 44.0938 85.7969 44.0339 85.7969 43.9141V40.2695C85.7969 40.1523 85.9036 40.0938 86.1172 40.0938C86.3281 40.0938 86.4336 40.1523 86.4336 40.2695V40.6992C86.6549 40.2956 87.0378 40.0938 87.582 40.0938C88.1185 40.0938 88.5326 40.3112 88.8242 40.7461C89.0846 40.3112 89.5117 40.0938 90.1055 40.0938C91.2044 40.0938 91.7539 40.6745 91.7539 41.8359V43.918C91.7539 44.0352 91.6471 44.0938 91.4336 44.0938ZM92.793 38.9492C93.0273 38.9492 93.1445 39.0664 93.1445 39.3008C93.1445 39.5352 93.0273 39.6523 92.793 39.6523C92.5586 39.6523 92.4414 39.5352 92.4414 39.3008C92.4414 39.0664 92.5586 38.9492 92.793 38.9492ZM92.4727 40.2695C92.4727 40.1523 92.5794 40.0938 92.793 40.0938C93.0065 40.0938 93.1133 40.1523 93.1133 40.2695V43.9141C93.1133 44.0339 93.0065 44.0938 92.793 44.0938C92.5794 44.0938 92.4727 44.0339 92.4727 43.9141V40.2695ZM95.6641 44.0938C95.0781 44.0938 94.5924 43.9154 94.207 43.5586C93.8242 43.1992 93.6328 42.7214 93.6328 42.125C93.6328 41.5208 93.8268 41.0312 94.2148 40.6562C94.6055 40.2812 95.099 40.0938 95.6953 40.0938C96.2552 40.0938 96.7318 40.2461 97.125 40.5508C97.5208 40.8555 97.7188 41.3034 97.7188 41.8945C97.7188 42.0352 97.6133 42.1055 97.4023 42.1055H94.2656C94.2656 42.5221 94.3854 42.8984 94.625 43.2344C94.8672 43.5703 95.2148 43.7383 95.668 43.7383C95.9987 43.7383 96.2943 43.6497 96.5547 43.4727C96.8359 43.2852 96.9883 43.0703 97.0117 42.8281C97.0247 42.7161 97.1289 42.6602 97.3242 42.6602C97.5378 42.6602 97.6445 42.7188 97.6445 42.8359C97.6445 42.9193 97.6159 43.0208 97.5586 43.1406C97.4544 43.3594 97.2826 43.5469 97.043 43.7031C96.6523 43.9635 96.1927 44.0938 95.6641 44.0938ZM97.0781 41.7461C97.013 40.8815 96.5521 40.4492 95.6953 40.4492C94.9297 40.4492 94.4648 40.8815 94.3008 41.7461H97.0781ZM101.578 44.0977C101.367 44.0977 101.262 44.0378 101.262 43.918V41.8477C101.262 41.5065 101.169 41.1901 100.984 40.8984C100.802 40.6042 100.52 40.457 100.137 40.457C99.3398 40.457 98.9414 40.9583 98.9414 41.9609V43.918C98.9414 44.0378 98.8359 44.0977 98.625 44.0977C98.4115 44.0977 98.3047 44.0378 98.3047 43.918V40.2734C98.3047 40.1536 98.4115 40.0938 98.625 40.0938C98.8359 40.0938 98.9414 40.1536 98.9414 40.2734V40.7148C99.1732 40.2982 99.5898 40.0898 100.191 40.0898C100.608 40.0872 100.996 40.2344 101.355 40.5312C101.717 40.8255 101.898 41.2643 101.898 41.8477V43.918C101.898 44.0378 101.792 44.0977 101.578 44.0977ZM104.453 44.0938C103.63 44.0885 103.219 43.7383 103.219 43.043V40.4492H102.703C102.492 40.4492 102.387 40.3906 102.387 40.2734C102.387 40.1536 102.492 40.0938 102.703 40.0938H103.219V38.7852C103.219 38.6654 103.326 38.6055 103.539 38.6055C103.75 38.6055 103.855 38.6654 103.855 38.7852V40.0938H104.59C104.803 40.0938 104.91 40.1536 104.91 40.2734C104.91 40.3906 104.803 40.4492 104.59 40.4492H103.855V43.043C103.855 43.5039 104.055 43.7357 104.453 43.7383C104.529 43.7383 104.6 43.7318 104.668 43.7188C104.736 43.7031 104.803 43.6953 104.871 43.6953C105.087 43.6953 105.195 43.7552 105.195 43.875C105.195 43.9609 105.104 44.0195 104.922 44.0508C104.766 44.0794 104.609 44.0938 104.453 44.0938ZM107.348 40.0938C107.949 40.0938 108.441 40.2786 108.824 40.6484C109.207 41.0182 109.398 41.5 109.398 42.0938C109.398 42.6875 109.207 43.1693 108.824 43.5391C108.441 43.9089 107.949 44.0938 107.348 44.0938C106.746 44.0938 106.254 43.9089 105.871 43.5391C105.488 43.1693 105.297 42.6875 105.297 42.0938C105.297 41.5 105.488 41.0182 105.871 40.6484C106.254 40.2786 106.746 40.0938 107.348 40.0938ZM107.348 40.4492C106.892 40.4492 106.542 40.6198 106.297 40.9609C106.055 41.3021 105.934 41.6797 105.934 42.0938C105.934 42.5078 106.055 42.8854 106.297 43.2266C106.542 43.5677 106.892 43.7383 107.348 43.7383C107.803 43.7383 108.152 43.5677 108.395 43.2266C108.639 42.8854 108.762 42.5078 108.762 42.0938C108.762 41.6797 108.639 41.3021 108.395 40.9609C108.152 40.6198 107.803 40.4492 107.348 40.4492ZM111.938 38.7812C111.938 38.6641 112.044 38.6055 112.258 38.6055C112.469 38.6055 112.574 38.6641 112.574 38.7812V43.6445H115.266C115.479 43.6445 115.586 43.7044 115.586 43.8242C115.586 43.9414 115.479 44 115.266 44H112.258C112.044 44 111.938 43.9414 111.938 43.8242V38.7812ZM117.934 40.0938C118.535 40.0938 119.027 40.2786 119.41 40.6484C119.793 41.0182 119.984 41.5 119.984 42.0938C119.984 42.6875 119.793 43.1693 119.41 43.5391C119.027 43.9089 118.535 44.0938 117.934 44.0938C117.332 44.0938 116.84 43.9089 116.457 43.5391C116.074 43.1693 115.883 42.6875 115.883 42.0938C115.883 41.5 116.074 41.0182 116.457 40.6484C116.84 40.2786 117.332 40.0938 117.934 40.0938ZM117.934 40.4492C117.478 40.4492 117.128 40.6198 116.883 40.9609C116.641 41.3021 116.52 41.6797 116.52 42.0938C116.52 42.5078 116.641 42.8854 116.883 43.2266C117.128 43.5677 117.478 43.7383 117.934 43.7383C118.389 43.7383 118.738 43.5677 118.98 43.2266C119.225 42.8854 119.348 42.5078 119.348 42.0938C119.348 41.6797 119.225 41.3021 118.98 40.9609C118.738 40.6198 118.389 40.4492 117.934 40.4492ZM124.211 43.8828C124.211 44.474 124.01 44.9036 123.609 45.1719C123.211 45.4427 122.743 45.5781 122.207 45.5781C121.902 45.5781 121.569 45.526 121.207 45.4219C120.848 45.3177 120.579 45.1354 120.402 44.875C120.387 44.8516 120.379 44.8294 120.379 44.8086C120.379 44.694 120.487 44.6367 120.703 44.6367C120.844 44.6367 120.941 44.6745 120.996 44.75C121.116 44.9245 121.297 45.0469 121.539 45.1172C121.781 45.1875 122.005 45.2227 122.211 45.2227C123.122 45.2227 123.578 44.776 123.578 43.8828V43.5117C123.292 43.8971 122.865 44.0898 122.297 44.0898C121.701 44.0898 121.23 43.8984 120.887 43.5156C120.546 43.1302 120.375 42.6549 120.375 42.0898C120.375 41.5221 120.546 41.0469 120.887 40.6641C121.23 40.2812 121.701 40.0898 122.297 40.0898C122.854 40.0898 123.281 40.2878 123.578 40.6836L123.582 40.2695C123.582 40.1497 123.688 40.0898 123.898 40.0898C124.107 40.0898 124.211 40.1497 124.211 40.2695V43.8828ZM122.297 43.7344C122.732 43.7344 123.055 43.5547 123.266 43.1953C123.477 42.8359 123.582 42.4674 123.582 42.0898C123.582 41.7096 123.477 41.3411 123.266 40.9844C123.055 40.625 122.732 40.4453 122.297 40.4453C121.865 40.4453 121.542 40.625 121.328 40.9844C121.117 41.3411 121.012 41.7096 121.012 42.0898C121.012 42.4674 121.117 42.8359 121.328 43.1953C121.542 43.5547 121.865 43.7344 122.297 43.7344ZM125.113 39.6602C125.051 39.6602 124.993 39.6276 124.941 39.5625C124.895 39.5026 124.871 39.4492 124.871 39.4023C124.871 39.3581 124.898 39.3086 124.953 39.2539L126.277 38.0195C126.316 37.9831 126.362 37.9648 126.414 37.9648C126.513 37.9648 126.604 38.0182 126.688 38.125C126.75 38.2109 126.781 38.2904 126.781 38.3633C126.781 38.4336 126.754 38.4883 126.699 38.5273L125.215 39.6211C125.181 39.6471 125.147 39.6602 125.113 39.6602ZM125.434 40.2695V43.918C125.434 44.0352 125.327 44.0938 125.113 44.0938C124.902 44.0938 124.797 44.0352 124.797 43.918V40.2695C124.797 40.1523 124.902 40.0938 125.113 40.0938C125.327 40.0938 125.434 40.1523 125.434 40.2695ZM128.012 44.0938C127.66 44.0938 127.312 44.0156 126.969 43.8594C126.628 43.7005 126.419 43.4323 126.344 43.0547C126.333 43.0078 126.328 42.9727 126.328 42.9492C126.328 42.8346 126.436 42.7773 126.652 42.7773C126.832 42.7773 126.935 42.8281 126.961 42.9297C127.102 43.4688 127.452 43.7383 128.012 43.7383C128.246 43.7383 128.475 43.668 128.699 43.5273C128.926 43.3867 129.039 43.1823 129.039 42.9141C129.039 42.7422 128.917 42.6029 128.672 42.4961C128.51 42.4232 128.297 42.3672 128.031 42.3281C127.839 42.2995 127.645 42.2682 127.449 42.2344C127.254 42.2005 127.069 42.125 126.895 42.0078C126.579 41.7943 126.422 41.5195 126.422 41.1836C126.422 40.7956 126.608 40.5169 126.98 40.3477C127.353 40.1784 127.701 40.0938 128.023 40.0938C128.344 40.0938 128.654 40.1667 128.953 40.3125C129.253 40.4583 129.451 40.694 129.547 41.0195C129.56 41.0638 129.566 41.0951 129.566 41.1133C129.566 41.2227 129.46 41.2773 129.246 41.2773C129.061 41.2773 128.957 41.2279 128.934 41.1289C128.822 40.6758 128.518 40.4492 128.023 40.4492C127.812 40.4492 127.599 40.5091 127.383 40.6289C127.167 40.7461 127.059 40.9271 127.059 41.1719C127.059 41.3411 127.195 41.4805 127.469 41.5898C127.641 41.6602 127.85 41.7148 128.098 41.7539C128.283 41.7799 128.47 41.8125 128.66 41.8516C128.85 41.888 129.034 41.9635 129.211 42.0781C129.518 42.2786 129.672 42.5495 129.672 42.8906C129.672 43.3099 129.486 43.6159 129.113 43.8086C128.743 43.9987 128.376 44.0938 128.012 44.0938ZM132.031 44.0938C131.208 44.0885 130.797 43.7383 130.797 43.043V40.4492H130.281C130.07 40.4492 129.965 40.3906 129.965 40.2734C129.965 40.1536 130.07 40.0938 130.281 40.0938H130.797V38.7852C130.797 38.6654 130.904 38.6055 131.117 38.6055C131.328 38.6055 131.434 38.6654 131.434 38.7852V40.0938H132.168C132.382 40.0938 132.488 40.1536 132.488 40.2734C132.488 40.3906 132.382 40.4492 132.168 40.4492H131.434V43.043C131.434 43.5039 131.633 43.7357 132.031 43.7383C132.107 43.7383 132.178 43.7318 132.246 43.7188C132.314 43.7031 132.382 43.6953 132.449 43.6953C132.665 43.6953 132.773 43.7552 132.773 43.875C132.773 43.9609 132.682 44.0195 132.5 44.0508C132.344 44.0794 132.188 44.0938 132.031 44.0938ZM133.52 38.9492C133.754 38.9492 133.871 39.0664 133.871 39.3008C133.871 39.5352 133.754 39.6523 133.52 39.6523C133.285 39.6523 133.168 39.5352 133.168 39.3008C133.168 39.0664 133.285 38.9492 133.52 38.9492ZM133.199 40.2695C133.199 40.1523 133.306 40.0938 133.52 40.0938C133.733 40.0938 133.84 40.1523 133.84 40.2695V43.9141C133.84 44.0339 133.733 44.0938 133.52 44.0938C133.306 44.0938 133.199 44.0339 133.199 43.9141V40.2695ZM137.887 42.6641C138.098 42.6641 138.203 42.7201 138.203 42.832C138.203 42.9831 138.134 43.1576 137.996 43.3555C137.647 43.8477 137.1 44.0938 136.355 44.0938C135.025 44.0938 134.359 43.4349 134.359 42.1172C134.354 40.7682 135.034 40.0938 136.398 40.0938C137.115 40.0938 137.639 40.3242 137.973 40.7852C138.121 40.9831 138.195 41.1693 138.195 41.3438C138.195 41.4635 138.09 41.5234 137.879 41.5234C137.681 41.5234 137.576 41.4688 137.562 41.3594C137.479 40.7526 137.094 40.4492 136.406 40.4492C135.935 40.4492 135.582 40.6198 135.348 40.9609C135.113 41.3021 134.996 41.6875 134.996 42.1172C134.996 42.5417 135.112 42.918 135.344 43.2461C135.576 43.5742 135.922 43.7383 136.383 43.7383C137.065 43.7383 137.461 43.4336 137.57 42.8242C137.589 42.7174 137.694 42.6641 137.887 42.6641ZM140.645 40.0938C141.246 40.0938 141.738 40.2786 142.121 40.6484C142.504 41.0182 142.695 41.5 142.695 42.0938C142.695 42.6875 142.504 43.1693 142.121 43.5391C141.738 43.9089 141.246 44.0938 140.645 44.0938C140.043 44.0938 139.551 43.9089 139.168 43.5391C138.785 43.1693 138.594 42.6875 138.594 42.0938C138.594 41.5 138.785 41.0182 139.168 40.6484C139.551 40.2786 140.043 40.0938 140.645 40.0938ZM140.645 40.4492C140.189 40.4492 139.839 40.6198 139.594 40.9609C139.352 41.3021 139.23 41.6797 139.23 42.0938C139.23 42.5078 139.352 42.8854 139.594 43.2266C139.839 43.5677 140.189 43.7383 140.645 43.7383C141.1 43.7383 141.449 43.5677 141.691 43.2266C141.936 42.8854 142.059 42.5078 142.059 42.0938C142.059 41.6797 141.936 41.3021 141.691 40.9609C141.449 40.6198 141.1 40.4492 140.645 40.4492Z" fill="#111927"/>
<path fill-rule="evenodd" clip-rule="evenodd" d="M59 29C59 12.9837 45.7924 0 29.5 0C13.2076 0 0 12.9837 0 29C0 45.0163 13.2076 58 29.5 58C45.7888 58 58.9942 45.0219 59 29.0105C58.9943 43.2787 47.2264 54.8436 32.7109 54.8436C18.1918 54.8436 6.42177 43.273 6.42177 29C6.42177 14.727 18.1918 3.15648 32.7109 3.15648C47.23 3.15648 59 14.727 59 29Z" fill="#111927"/>
<path fill-rule="evenodd" clip-rule="evenodd" d="M33.5136 52.4762C20.3245 52.4762 9.63266 41.9655 9.63266 29C9.63266 16.0345 20.3245 5.5238 33.5136 5.5238C46.7027 5.5238 57.3946 16.0345 57.3946 29C57.3946 41.9655 46.7027 52.4762 33.5136 52.4762ZM30.9143 49.921C19.1608 49.921 9.63266 40.5543 9.63266 29C9.63266 17.4457 19.1608 8.07905 30.9143 8.07905C42.6679 8.07905 52.196 17.4457 52.196 29C52.196 40.5543 42.6679 49.921 30.9143 49.921Z" fill="#111927"/>
<path d="M41.5512 31.8632C42.6059 31.8632 43.1333 32.1691 43.1333 32.7811C43.1333 32.9764 43.0551 33.3475 42.8989 33.8944C42.2088 36.2772 40.7374 38.0936 38.4848 39.3436C36.2452 40.5806 33.9275 41.1991 31.5317 41.1991C27.5343 41.1991 24.4223 39.9296 22.1958 37.3905C19.9822 34.8514 18.8754 31.6093 18.8754 27.6639C18.8754 23.6665 19.9887 20.3527 22.2153 17.7225C24.4418 15.0793 27.6385 13.7577 31.8051 13.7577C34.253 13.7577 36.5968 14.4152 38.8364 15.7303C41.076 17.0455 42.4562 18.9595 42.977 21.4725C43.0551 21.759 43.0942 21.9803 43.0942 22.1366C43.0942 22.7746 42.5603 23.0936 41.4926 23.0936C40.503 23.0936 39.9757 22.8202 39.9106 22.2733C39.3247 17.7811 36.6228 15.535 31.8051 15.535C28.4978 15.535 26.0434 16.7981 24.4418 19.3241C22.8403 21.8371 22.0395 24.5715 22.0395 27.5272C22.0395 30.4309 22.7947 33.1392 24.3051 35.6522C25.8286 38.1652 28.2374 39.4218 31.5317 39.4218C33.5109 39.4218 35.3273 38.7968 36.9809 37.5468C38.6476 36.2968 39.6437 34.6691 39.9692 32.6639C40.0603 32.1301 40.5877 31.8632 41.5512 31.8632Z" fill="#111927"/>
</svg>
